<?xml version="1.0" encoding="utf-8"?>
<!-- Generator: Adobe Illustrator 23.0.4, SVG Export Plug-In . SVG Version: 6.00 Build 0)  -->
<svg version="1.1" id="Layer_1" xmlns="http://www.w3.org/2000/svg" xmlns:xlink="http://www.w3.org/1999/xlink" x="0px" y="0px"
	 viewBox="0 0 512 512" style="enable-background:new 0 0 512 512;" xml:space="preserve">
<style type="text/css">
	.st0{fill:#020202;}
</style>
<path class="st0" d="M203.4,62.2c14.1-20.5,29.3-41.6,51-54.7c21.3,12.8,36.4,33.5,50.3,53.7c32.8,49.8,52.9,109.5,48.9,169.6
	c10.6,8.9,21.5,17.4,32,26.5c15,13.8,22,35.3,18.4,55.3c-5,25.3-9.9,50.6-15.2,75.8c-3,13-20.5,18.9-30.8,10.6
	c-17.1-14.3-33.8-29.1-50.9-43.4c-13,12.5-30.2,20.8-48.2,21.8c-20.8,1.5-41.4-7.2-56.4-21.2c-12.3,9.4-23.7,20.7-35.7,30.8
	c-5.8,4.7-10.6,10.8-17.5,14c-10.6,4.6-24.3-2.2-26.7-13.7c-5.5-24.6-11.2-49.2-16.5-73.9c-4.3-20.9,3.3-43.6,19.4-57.6
	c9.3-7.8,18.8-15.5,28.2-23.1c2.6-1.4,1.3-4.6,1.5-7C152.2,167.6,172,110.3,203.4,62.2z"/>
<path class="st0" d="M221,138.5c-12.4,16-10.9,40.8,3.5,55.1c15.3,16.8,44.1,17.4,60.1,1.3c12.3-11.3,16.5-30.1,10.6-45.7
	c-5.4-15-19.8-26.2-35.7-27.6C244.9,119.9,229.7,126.7,221,138.5z"/>
<path class="st0" d="M198.3,407.8c-0.2-7.3,8.8-12.3,14.9-8.4c25.9,13.3,58,13.3,83.9,0c5.9-3.6,14.7,0.7,15,7.8
	c0.1,15.4,0.1,30.9,0,46.3c0.1,7.5-9.8,12.3-15.7,7.6c-4.5-3.9-8.5-8.3-12.8-12.5c-6.8,13.2-13.2,26.6-20,39.8
	c-3.3,6.3-13.5,6.3-16.9,0.1c-6.9-13.2-13.2-26.7-20.1-39.9c-4.2,4.2-8.2,8.5-12.7,12.5c-5.8,4.7-15.8-0.2-15.7-7.6
	C198.2,438.3,198.2,423.1,198.3,407.8z"/>
</svg>
