solid 0
facet normal -8.83441468128393e-013 -0 -1
outer loop
vertex -27.7499999999983 3.15 10.300000000003
vertex -25.4999999999983 3.15 10.300000000001
vertex -27.7499999999983 -3.15 10.300000000003
endloop
endfacet
facet normal -8.83441468128393e-013 -0 -1
outer loop
vertex -25.4999999999983 3.15 10.300000000001
vertex -25.4999999999983 -3.15 10.300000000001
vertex -27.7499999999983 -3.15 10.300000000003
endloop
endfacet
facet normal 1 0 -8.83544445336473e-013
outer loop
vertex -27.7500000000004 3.15 8.00000000000299
vertex -27.7499999999983 3.15 10.300000000003
vertex -27.7500000000004 -3.15 8.00000000000299
endloop
endfacet
facet normal 1 0 -8.83544445336473e-013
outer loop
vertex -27.7499999999983 3.15 10.300000000003
vertex -27.7499999999983 -3.15 10.300000000003
vertex -27.7500000000004 -3.15 8.00000000000299
endloop
endfacet
facet normal 1 0 -8.83998756548596e-013
outer loop
vertex -25.4999999999983 3.15 10.300000000001
vertex -25.4999999999968 3.15 12.000000000001
vertex -25.4999999999983 -3.15 10.300000000001
endloop
endfacet
facet normal 1 0 -8.83998756548596e-013
outer loop
vertex -25.4999999999968 3.15 12.000000000001
vertex -25.4999999999968 -3.15 12.000000000001
vertex -25.4999999999983 -3.15 10.300000000001
endloop
endfacet
facet normal 0.936329177569355 0 0.351123441587564
outer loop
vertex -17.5000000000004 3.15 7.99999999999394
vertex -18.9999999999968 3.15 11.9999999999953
vertex -17.5000000000004 -3.15 7.99999999999394
endloop
endfacet
facet normal 0.936329177569355 0 0.351123441587564
outer loop
vertex -18.9999999999968 3.15 11.9999999999953
vertex -18.9999999999968 -3.15 11.9999999999953
vertex -17.5000000000004 -3.15 7.99999999999394
endloop
endfacet
facet normal -0 1 0
outer loop
vertex -22.4999999999983 3.15 10.2999999999984
vertex -22.4999999999968 3.15 11.9999999999984
vertex -20.2499999999983 3.15 10.2999999999964
endloop
endfacet
facet normal 0 1 0
outer loop
vertex -22.4999999999968 3.15 11.9999999999984
vertex -18.9999999999968 3.15 11.9999999999953
vertex -20.2499999999983 3.15 10.2999999999964
endloop
endfacet
facet normal -0 1 0
outer loop
vertex -20.2499999999983 3.15 10.2999999999964
vertex -18.9999999999968 3.15 11.9999999999953
vertex -20.2500000000004 3.15 7.99999999999637
endloop
endfacet
facet normal 0 1 0
outer loop
vertex -27.7499999999983 3.15 10.300000000003
vertex -27.7500000000004 3.15 8.00000000000299
vertex -27.9500000012106 3.15 5.00000000000317
endloop
endfacet
facet normal 0 1 0
outer loop
vertex -27.7500000000004 3.15 8.00000000000299
vertex -27.9500000012125 3.15 2.9301705959374
vertex -27.9500000012106 3.15 5.00000000000317
endloop
endfacet
facet normal 0 1 0
outer loop
vertex -16.0000000000004 3.15 7.99999999999261
vertex -16.000000000003 3.15 4.99999999999261
vertex -17.5000000000004 3.15 7.99999999999394
endloop
endfacet
facet normal 0 1 0
outer loop
vertex -16.000000000003 3.15 4.99999999999261
vertex -20.0500000012106 3.15 4.99999999999619
vertex -17.5000000000004 3.15 7.99999999999394
endloop
endfacet
facet normal 0 1 0
outer loop
vertex -18.7500000012134 3.15 1.89897390744216
vertex -20.0500000012148 3.15 0.260101305476909
vertex -20.0500000012125 3.15 2.93017059593042
endloop
endfacet
facet normal 0 1 -0
outer loop
vertex -20.0500000012148 3.15 0.260101305476909
vertex -22.2500000012148 3.15 0.260101305478863
vertex -20.0500000012125 3.15 2.93017059593042
endloop
endfacet
facet normal 0 1 -0
outer loop
vertex -20.0500000012125 3.15 2.93017059593042
vertex -22.2500000012148 3.15 0.260101305478863
vertex -20.0500000012106 3.15 4.99999999999619
endloop
endfacet
facet normal 0 1 0
outer loop
vertex -22.2500000012148 3.15 0.260101305478863
vertex -22.2500000012104 3.15 5.26010130547886
vertex -20.0500000012106 3.15 4.99999999999619
endloop
endfacet
facet normal 0 1 -0
outer loop
vertex -20.0500000012106 3.15 4.99999999999619
vertex -22.2500000012104 3.15 5.26010130547886
vertex -17.5000000000004 3.15 7.99999999999394
endloop
endfacet
facet normal 0 1 0
outer loop
vertex -25.4999999999968 3.15 12.000000000001
vertex -25.4999999999983 3.15 10.300000000001
vertex -28.9999999999968 3.15 12.0000000000041
endloop
endfacet
facet normal 0 1 0
outer loop
vertex -25.4999999999983 3.15 10.300000000001
vertex -27.7499999999983 3.15 10.300000000003
vertex -28.9999999999968 3.15 12.0000000000041
endloop
endfacet
facet normal 0 1 0
outer loop
vertex -28.9999999999968 3.15 12.0000000000041
vertex -27.7499999999983 3.15 10.300000000003
vertex -30.5000000000004 3.15 8.00000000000543
endloop
endfacet
facet normal 0 1 0
outer loop
vertex -27.7499999999983 3.15 10.300000000003
vertex -27.9500000012106 3.15 5.00000000000317
vertex -30.5000000000004 3.15 8.00000000000543
endloop
endfacet
facet normal 0 1 0
outer loop
vertex -30.5000000000004 3.15 8.00000000000543
vertex -27.9500000012106 3.15 5.00000000000317
vertex -32.0000000000004 3.15 8.00000000000675
endloop
endfacet
facet normal 0 1 0
outer loop
vertex -27.9500000012106 3.15 5.00000000000317
vertex -32.000000000003 3.15 5.00000000000675
vertex -32.0000000000004 3.15 8.00000000000675
endloop
endfacet
facet normal 0 1 0
outer loop
vertex -18.9999999999968 3.15 11.9999999999953
vertex -17.5000000000004 3.15 7.99999999999394
vertex -20.2500000000004 3.15 7.99999999999637
endloop
endfacet
facet normal 0 1 0
outer loop
vertex -17.5000000000004 3.15 7.99999999999394
vertex -22.2500000012104 3.15 5.26010130547886
vertex -20.2500000000004 3.15 7.99999999999637
endloop
endfacet
facet normal 0 1 0
outer loop
vertex -20.2500000000004 3.15 7.99999999999637
vertex -22.2500000012104 3.15 5.26010130547886
vertex -27.7500000000004 3.15 8.00000000000299
endloop
endfacet
facet normal 0 1 0
outer loop
vertex -22.2500000012104 3.15 5.26010130547886
vertex -25.7500000012104 3.15 5.26010130548196
vertex -27.7500000000004 3.15 8.00000000000299
endloop
endfacet
facet normal 0 1 0
outer loop
vertex -27.7500000000004 3.15 8.00000000000299
vertex -25.7500000012104 3.15 5.26010130548196
vertex -27.9500000012125 3.15 2.9301705959374
endloop
endfacet
facet normal 0 1 0
outer loop
vertex -25.7500000012104 3.15 5.26010130548196
vertex -25.7500000012148 3.15 0.260101305481947
vertex -27.9500000012125 3.15 2.9301705959374
endloop
endfacet
facet normal 0 1 0
outer loop
vertex -27.9500000012125 3.15 2.9301705959374
vertex -25.7500000012148 3.15 0.260101305481947
vertex -29.2500000012134 3.15 1.89897390745144
endloop
endfacet
facet normal 0 1 0
outer loop
vertex -25.7500000012148 3.15 0.260101305481947
vertex -27.9500000012148 3.15 0.260101305483901
vertex -29.2500000012134 3.15 1.89897390745144
endloop
endfacet
facet normal -8.83610644970239e-013 -0 -1
outer loop
vertex -25.7500000012104 3.15 5.26010130548196
vertex -22.2500000012104 3.15 5.26010130547886
vertex -25.7500000012104 -3.15 5.26010130548196
endloop
endfacet
facet normal -8.83610644970239e-013 -0 -1
outer loop
vertex -22.2500000012104 3.15 5.26010130547886
vertex -22.2500000012104 -3.15 5.26010130547886
vertex -25.7500000012104 -3.15 5.26010130548196
endloop
endfacet
facet normal -8.83762759943094e-013 -0 -1
outer loop
vertex -27.9500000012148 3.15 0.260101305483901
vertex -25.7500000012148 3.15 0.260101305481956
vertex -27.9500000012148 -3.15 0.260101305483901
endloop
endfacet
facet normal -8.83762759943094e-013 -0 -1
outer loop
vertex -25.7500000012148 3.15 0.260101305481956
vertex -25.7500000012148 -3.15 0.260101305481956
vertex -27.9500000012148 -3.15 0.260101305483901
endloop
endfacet
facet normal 0 -1 0
outer loop
vertex -27.9500000012106 -3.15 5.00000000000317
vertex -20.2500000000004 -3.15 7.99999999999637
vertex -32.000000000003 -3.15 5.00000000000675
endloop
endfacet
facet normal -0 -1 0
outer loop
vertex -20.2500000000004 -3.15 7.99999999999637
vertex -27.7500000000004 -3.15 8.00000000000299
vertex -32.000000000003 -3.15 5.00000000000675
endloop
endfacet
facet normal 0 -1 -0
outer loop
vertex -32.0000000000004 -3.15 8.00000000000675
vertex -32.000000000003 -3.15 5.00000000000675
vertex -30.5000000000004 -3.15 8.00000000000543
endloop
endfacet
facet normal 0 -1 0
outer loop
vertex -32.000000000003 -3.15 5.00000000000675
vertex -27.7500000000004 -3.15 8.00000000000299
vertex -30.5000000000004 -3.15 8.00000000000543
endloop
endfacet
facet normal 0 -1 0
outer loop
vertex -30.5000000000004 -3.15 8.00000000000543
vertex -27.7500000000004 -3.15 8.00000000000299
vertex -28.9999999999968 -3.15 12.0000000000041
endloop
endfacet
facet normal 0 -1 0
outer loop
vertex -27.7500000000004 -3.15 8.00000000000299
vertex -27.7499999999983 -3.15 10.300000000003
vertex -28.9999999999968 -3.15 12.0000000000041
endloop
endfacet
facet normal 0 -1 0
outer loop
vertex -28.9999999999968 -3.15 12.0000000000041
vertex -27.7499999999983 -3.15 10.300000000003
vertex -25.4999999999968 -3.15 12.000000000001
endloop
endfacet
facet normal 0 -1 0
outer loop
vertex -27.7499999999983 -3.15 10.300000000003
vertex -25.4999999999983 -3.15 10.300000000001
vertex -25.4999999999968 -3.15 12.000000000001
endloop
endfacet
facet normal 0 -1 0
outer loop
vertex -20.0500000012106 -3.15 4.99999999999619
vertex -20.2499999999983 -3.15 10.2999999999964
vertex -20.2500000000004 -3.15 7.99999999999637
endloop
endfacet
facet normal 0 -1 0
outer loop
vertex -20.0500000012148 -3.15 0.260101305476909
vertex -18.7500000012134 -3.15 1.89897390744216
vertex -22.2500000012148 -3.15 0.260101305478863
endloop
endfacet
facet normal -0 -1 0
outer loop
vertex -18.7500000012134 -3.15 1.89897390744216
vertex -20.0500000012125 -3.15 2.93017059593042
vertex -22.2500000012148 -3.15 0.260101305478863
endloop
endfacet
facet normal 0 -1 0
outer loop
vertex -22.2500000012148 -3.15 0.260101305478863
vertex -20.0500000012125 -3.15 2.93017059593042
vertex -22.2500000012104 -3.15 5.26010130547886
endloop
endfacet
facet normal 0 -1 -0
outer loop
vertex -22.4999999999968 -3.15 11.9999999999984
vertex -22.4999999999983 -3.15 10.2999999999984
vertex -18.9999999999968 -3.15 11.9999999999953
endloop
endfacet
facet normal 0 -1 0
outer loop
vertex -22.4999999999983 -3.15 10.2999999999984
vertex -20.2499999999983 -3.15 10.2999999999964
vertex -18.9999999999968 -3.15 11.9999999999953
endloop
endfacet
facet normal 0 -1 -0
outer loop
vertex -18.9999999999968 -3.15 11.9999999999953
vertex -20.2499999999983 -3.15 10.2999999999964
vertex -17.5000000000004 -3.15 7.99999999999394
endloop
endfacet
facet normal 0 -1 0
outer loop
vertex -20.2499999999983 -3.15 10.2999999999964
vertex -20.0500000012106 -3.15 4.99999999999619
vertex -17.5000000000004 -3.15 7.99999999999394
endloop
endfacet
facet normal 0 -1 -0
outer loop
vertex -17.5000000000004 -3.15 7.99999999999394
vertex -20.0500000012106 -3.15 4.99999999999619
vertex -16.0000000000004 -3.15 7.99999999999261
endloop
endfacet
facet normal 0 -1 0
outer loop
vertex -20.0500000012106 -3.15 4.99999999999619
vertex -16.000000000003 -3.15 4.99999999999261
vertex -16.0000000000004 -3.15 7.99999999999261
endloop
endfacet
facet normal 0 -1 0
outer loop
vertex -29.2500000012134 -3.15 1.89897390745144
vertex -27.9500000012148 -3.15 0.260101305483901
vertex -27.9500000012125 -3.15 2.9301705959374
endloop
endfacet
facet normal 0 -1 0
outer loop
vertex -27.9500000012148 -3.15 0.260101305483901
vertex -25.7500000012148 -3.15 0.260101305481947
vertex -27.9500000012125 -3.15 2.9301705959374
endloop
endfacet
facet normal 0 -1 0
outer loop
vertex -27.9500000012125 -3.15 2.9301705959374
vertex -25.7500000012148 -3.15 0.260101305481947
vertex -27.9500000012106 -3.15 5.00000000000317
endloop
endfacet
facet normal 0 -1 0
outer loop
vertex -25.7500000012148 -3.15 0.260101305481947
vertex -25.7500000012104 -3.15 5.26010130548196
vertex -27.9500000012106 -3.15 5.00000000000317
endloop
endfacet
facet normal 0 -1 0
outer loop
vertex -27.9500000012106 -3.15 5.00000000000317
vertex -25.7500000012104 -3.15 5.26010130548196
vertex -20.2500000000004 -3.15 7.99999999999637
endloop
endfacet
facet normal 0 -1 0
outer loop
vertex -25.7500000012104 -3.15 5.26010130548196
vertex -22.2500000012104 -3.15 5.26010130547886
vertex -20.2500000000004 -3.15 7.99999999999637
endloop
endfacet
facet normal 0 -1 -0
outer loop
vertex -20.2500000000004 -3.15 7.99999999999637
vertex -22.2500000012104 -3.15 5.26010130547886
vertex -20.0500000012106 -3.15 4.99999999999619
endloop
endfacet
facet normal 0 -1 0
outer loop
vertex -22.2500000012104 -3.15 5.26010130547886
vertex -20.0500000012125 -3.15 2.93017059593042
vertex -20.0500000012106 -3.15 4.99999999999619
endloop
endfacet
facet normal -1 0 8.83998756548596e-013
outer loop
vertex -22.4999999999968 3.15 11.9999999999984
vertex -22.4999999999983 3.15 10.2999999999984
vertex -22.4999999999968 -3.15 11.9999999999984
endloop
endfacet
facet normal -1 0 8.83998756548596e-013
outer loop
vertex -22.4999999999983 3.15 10.2999999999984
vertex -22.4999999999983 -3.15 10.2999999999984
vertex -22.4999999999968 -3.15 11.9999999999984
endloop
endfacet
facet normal -8.83441468128391e-013 -0 -1
outer loop
vertex -22.4999999999983 3.15 10.2999999999984
vertex -20.2499999999983 3.15 10.2999999999964
vertex -22.4999999999983 -3.15 10.2999999999984
endloop
endfacet
facet normal -8.83441468128391e-013 -0 -1
outer loop
vertex -20.2499999999983 3.15 10.2999999999964
vertex -20.2499999999983 -3.15 10.2999999999964
vertex -22.4999999999983 -3.15 10.2999999999984
endloop
endfacet
facet normal 8.84118175495782e-013 0 1
outer loop
vertex -18.9999999999968 3.15 11.9999999999953
vertex -22.4999999999968 3.15 11.9999999999984
vertex -18.9999999999968 -3.15 11.9999999999953
endloop
endfacet
facet normal 8.84118175495782e-013 0 1
outer loop
vertex -22.4999999999968 3.15 11.9999999999984
vertex -22.4999999999968 -3.15 11.9999999999984
vertex -18.9999999999968 -3.15 11.9999999999953
endloop
endfacet
facet normal 8.84152010864151e-013 0 1
outer loop
vertex -20.2500000000004 3.15 7.99999999999636
vertex -27.7500000000004 3.15 8.00000000000299
vertex -20.2500000000004 -3.15 7.99999999999636
endloop
endfacet
facet normal 8.84152010864151e-013 0 1
outer loop
vertex -27.7500000000004 3.15 8.00000000000299
vertex -27.7500000000004 -3.15 8.00000000000299
vertex -20.2500000000004 -3.15 7.99999999999636
endloop
endfacet
facet normal 1 0 -8.83441468128391e-013
outer loop
vertex -16.000000000003 3.15 4.99999999999261
vertex -16.0000000000004 3.15 7.99999999999261
vertex -16.000000000003 -3.15 4.99999999999261
endloop
endfacet
facet normal 1 0 -8.83441468128391e-013
outer loop
vertex -16.0000000000004 3.15 7.99999999999261
vertex -16.0000000000004 -3.15 7.99999999999261
vertex -16.000000000003 -3.15 4.99999999999261
endloop
endfacet
facet normal -8.83573049853033e-013 -0 -1
outer loop
vertex -20.0500000012106 3.15 4.99999999999619
vertex -16.000000000003 3.15 4.99999999999261
vertex -20.0500000012106 -3.15 4.99999999999619
endloop
endfacet
facet normal -8.83573049853034e-013 -0 -1
outer loop
vertex -16.000000000003 3.15 4.99999999999261
vertex -16.000000000003 -3.15 4.99999999999261
vertex -20.0500000012106 -3.15 4.99999999999619
endloop
endfacet
facet normal -1 0 8.83915163285565e-013
outer loop
vertex -22.2500000012104 3.15 5.26010130547886
vertex -22.2500000012148 3.15 0.260101305478863
vertex -22.2500000012104 -3.15 5.26010130547886
endloop
endfacet
facet normal -1 0 8.83915163285565e-013
outer loop
vertex -22.2500000012148 3.15 0.260101305478863
vertex -22.2500000012148 -3.15 0.260101305478863
vertex -22.2500000012104 -3.15 5.26010130547886
endloop
endfacet
facet normal -8.84216942089531e-013 -0 -1
outer loop
vertex -22.2500000012148 3.15 0.260101305478863
vertex -20.0500000012148 3.15 0.260101305476918
vertex -22.2500000012148 -3.15 0.260101305478863
endloop
endfacet
facet normal -8.84216942089531e-013 -0 -1
outer loop
vertex -20.0500000012148 3.15 0.260101305476918
vertex -20.0500000012148 -3.15 0.260101305476918
vertex -22.2500000012148 -3.15 0.260101305478863
endloop
endfacet
facet normal 0.783450084190683 0 -0.621454717241419
outer loop
vertex -20.0500000012148 3.15 0.26010130547691
vertex -18.7500000012134 3.15 1.89897390744216
vertex -20.0500000012148 -3.15 0.26010130547691
endloop
endfacet
facet normal 0.783450084190683 0 -0.621454717241419
outer loop
vertex -18.7500000012134 3.15 1.89897390744216
vertex -18.7500000012134 -3.15 1.89897390744216
vertex -20.0500000012148 -3.15 0.26010130547691
endloop
endfacet
facet normal -1 0 8.83441468128391e-013
outer loop
vertex -32.0000000000004 3.15 8.00000000000675
vertex -32.000000000003 3.15 5.00000000000675
vertex -32.0000000000004 -3.15 8.00000000000675
endloop
endfacet
facet normal -1 0 8.83441468128391e-013
outer loop
vertex -32.000000000003 3.15 5.00000000000675
vertex -32.000000000003 -3.15 5.00000000000675
vertex -32.0000000000004 -3.15 8.00000000000675
endloop
endfacet
facet normal -1 0 8.83544445336472e-013
outer loop
vertex -20.2499999999983 3.15 10.2999999999964
vertex -20.2500000000004 3.15 7.99999999999637
vertex -20.2499999999983 -3.15 10.2999999999964
endloop
endfacet
facet normal -1 0 8.83544445336472e-013
outer loop
vertex -20.2500000000004 3.15 7.99999999999637
vertex -20.2500000000004 -3.15 7.99999999999637
vertex -20.2499999999983 -3.15 10.2999999999964
endloop
endfacet
facet normal -0.936329177568735 0 0.351123441589218
outer loop
vertex -28.9999999999968 3.15 12.0000000000041
vertex -30.5000000000004 3.15 8.00000000000542
vertex -28.9999999999968 -3.15000000000001 12.0000000000041
endloop
endfacet
facet normal -0.936329177568735 0 0.351123441589218
outer loop
vertex -30.5000000000004 3.15 8.00000000000542
vertex -30.5000000000004 -3.15000000000001 8.00000000000542
vertex -28.9999999999968 -3.15000000000001 12.0000000000041
endloop
endfacet
facet normal -1 0 8.83960552975177e-013
outer loop
vertex -27.9500000012106 3.15 5.00000000000317
vertex -27.9500000012125 3.15 2.9301705959374
vertex -27.9500000012106 -3.15 5.00000000000317
endloop
endfacet
facet normal -1 0 8.83960552975177e-013
outer loop
vertex -27.9500000012125 3.15 2.9301705959374
vertex -27.9500000012125 -3.15 2.9301705959374
vertex -27.9500000012106 -3.15 5.00000000000317
endloop
endfacet
facet normal 1 0 -8.8567698123338e-013
outer loop
vertex -20.0500000012125 3.15 2.93017059593042
vertex -20.0500000012106 3.15 4.99999999999619
vertex -20.0500000012125 -3.15 2.93017059593042
endloop
endfacet
facet normal 1 0 -8.85676981233381e-013
outer loop
vertex -20.0500000012106 3.15 4.99999999999619
vertex -20.0500000012106 -3.15 4.99999999999619
vertex -20.0500000012125 -3.15 2.93017059593042
endloop
endfacet
facet normal -0.621454717240034 0 0.783450084191781
outer loop
vertex -27.9500000012125 3.15 2.9301705959374
vertex -29.2500000012134 3.15 1.89897390745144
vertex -27.9500000012125 -3.15000000000001 2.9301705959374
endloop
endfacet
facet normal -0.621454717240034 0 0.783450084191781
outer loop
vertex -29.2500000012134 3.15 1.89897390745144
vertex -29.2500000012134 -3.15000000000001 1.89897390745144
vertex -27.9500000012125 -3.15000000000001 2.9301705959374
endloop
endfacet
facet normal 8.83441468128389e-013 0 1
outer loop
vertex -30.5000000000004 3.15 8.00000000000543
vertex -32.0000000000004 3.15 8.00000000000675
vertex -30.5000000000004 -3.15 8.00000000000543
endloop
endfacet
facet normal 8.83441468128389e-013 0 1
outer loop
vertex -32.0000000000004 3.15 8.00000000000675
vertex -32.0000000000004 -3.15 8.00000000000675
vertex -30.5000000000004 -3.15 8.00000000000543
endloop
endfacet
facet normal 8.83441468128391e-013 0 1
outer loop
vertex -16.0000000000004 3.15 7.99999999999261
vertex -17.5000000000004 3.15 7.99999999999394
vertex -16.0000000000004 -3.15 7.99999999999261
endloop
endfacet
facet normal 8.83441468128391e-013 0 1
outer loop
vertex -17.5000000000004 3.15 7.99999999999394
vertex -17.5000000000004 -3.15 7.99999999999394
vertex -16.0000000000004 -3.15 7.99999999999261
endloop
endfacet
facet normal 0.621454717241418 0 0.783450084190683
outer loop
vertex -18.7500000012134 3.15 1.89897390744216
vertex -20.0500000012125 3.15 2.93017059593042
vertex -18.7500000012134 -3.15 1.89897390744216
endloop
endfacet
facet normal 0.621454717241418 0 0.783450084190683
outer loop
vertex -20.0500000012125 3.15 2.93017059593042
vertex -20.0500000012125 -3.15 2.93017059593042
vertex -18.7500000012134 -3.15 1.89897390744216
endloop
endfacet
facet normal -0.78345008419178 -0 -0.621454717240035
outer loop
vertex -29.2500000012134 3.15 1.89897390745144
vertex -27.9500000012148 3.15 0.260101305483897
vertex -29.2500000012134 -3.15 1.89897390745144
endloop
endfacet
facet normal -0.783450084191781 -0 -0.621454717240035
outer loop
vertex -27.9500000012148 3.15 0.260101305483897
vertex -27.9500000012148 -3.15 0.260101305483897
vertex -29.2500000012134 -3.15 1.89897390745144
endloop
endfacet
facet normal -8.83792353693528e-013 -0 -1
outer loop
vertex -32.000000000003 3.15 5.00000000000675
vertex -27.9500000012106 3.15 5.00000000000317
vertex -32.000000000003 -3.15 5.00000000000675
endloop
endfacet
facet normal -8.83792353693528e-013 -0 -1
outer loop
vertex -27.9500000012106 3.15 5.00000000000317
vertex -27.9500000012106 -3.15 5.00000000000317
vertex -32.000000000003 -3.15 5.00000000000675
endloop
endfacet
facet normal 8.84118175495782e-013 0 1
outer loop
vertex -25.4999999999968 3.15 12.000000000001
vertex -28.9999999999968 3.15 12.0000000000041
vertex -25.4999999999968 -3.15 12.000000000001
endloop
endfacet
facet normal 8.84118175495782e-013 0 1
outer loop
vertex -28.9999999999968 3.15 12.0000000000041
vertex -28.9999999999968 -3.15 12.0000000000041
vertex -25.4999999999968 -3.15 12.000000000001
endloop
endfacet
facet normal 1 0 -8.83915163285563e-013
outer loop
vertex -25.7500000012148 3.15 0.260101305481947
vertex -25.7500000012104 3.15 5.26010130548196
vertex -25.7500000012148 -3.15 0.260101305481947
endloop
endfacet
facet normal 1 0 -8.83915163285563e-013
outer loop
vertex -25.7500000012104 3.15 5.26010130548196
vertex -25.7500000012104 -3.15 5.26010130548196
vertex -25.7500000012148 -3.15 0.260101305481947
endloop
endfacet
endsolid
